<?xml version="1.0" encoding="UTF-8" standalone="no"?>
<!-- Created with Inkscape (http://www.inkscape.org/) -->

<svg
   xmlns:osb="http://www.openswatchbook.org/uri/2009/osb"
   xmlns:dc="http://purl.org/dc/elements/1.1/"
   xmlns:cc="http://creativecommons.org/ns#"
   xmlns:rdf="http://www.w3.org/1999/02/22-rdf-syntax-ns#"
   xmlns:svg="http://www.w3.org/2000/svg"
   xmlns="http://www.w3.org/2000/svg"
   xmlns:sodipodi="http://sodipodi.sourceforge.net/DTD/sodipodi-0.dtd"
   xmlns:inkscape="http://www.inkscape.org/namespaces/inkscape"
   width="210mm"
   height="297mm"
   viewBox="0 0 210 297"
   version="1.1"
   id="svg8"
   inkscape:version="0.92+devel unknown"
   sodipodi:docname="um-nodo.svg">
  <defs
     id="defs2">
    <linearGradient
       id="linearGradient4307"
       osb:paint="solid">
      <stop
         style="stop-color:#000000;stop-opacity:1;"
         offset="0"
         id="stop4305" />
    </linearGradient>
    <clipPath
       clipPathUnits="userSpaceOnUse"
       id="clipPath5942">
      <path
         style="fill:#ff0000;fill-opacity:1;fill-rule:nonzero;stroke:none;stroke-width:0.26458332"
         d="m 97.591975,35.164263 v 9.208222 h 22.118545 v -9.208222 h -7.97677 c 0.0271,0.006 0.0539,0.01323 0.0811,0.0186 0.21636,0.0427 0.4425,0.05246 0.65319,0.123507 0.0244,0.0082 0.0472,0.02096 0.0708,0.03152 0.0722,0.01381 0.14408,0.02844 0.21601,0.04392 0.0115,0.0024 -0.023,-0.0045 -0.0346,-0.0067 0.0557,0.01402 0.11214,0.02519 0.16691,0.04238 0.0367,0.01151 0.0694,0.03342 0.10646,0.04392 0.0354,0.01005 0.0731,0.0094 0.10903,0.01707 0.0602,0.0127 0.1189,0.03186 0.17932,0.04341 0.0462,0.0088 0.0934,0.01175 0.14004,0.01757 0.058,0.01249 0.11614,0.02524 0.17415,0.03772 0.36739,0.05374 0.74012,0.07752 1.11208,0.07493 0.20559,-0.0057 0.30244,-0.01749 0.51728,0.02273 0.002,2.64e-4 0.37536,0.108095 0.42995,0.122475 0.34409,0.09063 0.0442,2.36e-4 0.39843,0.112654 0.2846,0.06788 0.53992,0.214977 0.78134,0.375688 0.14882,0.132114 0.34075,0.208073 0.51987,0.309541 0.19483,0.13725 0.36974,0.294084 0.53226,0.469739 0.13757,0.08734 0.25756,0.193651 0.37156,0.306959 0.3795,-0.28992 0.548,0.102539 0.60048,0.212389 0.0119,-0.178041 -0.38466,-0.369316 -0.11937,-0.280086 0.0575,0.01934 0.11293,0.04372 0.1695,0.06563 0.17734,0.06237 0.31006,0.14066 0.36018,0.354502 0.0183,0.07794 -0.0297,0.157416 -0.0362,0.237193 -0.002,0.02951 0.021,-0.056 0.0253,-0.08526 0.0272,0.100552 0.0156,0.204038 0.0129,0.30644 -2.5e-4,0.0016 2e-4,0.0031 0,0.0047 0.004,0.0052 0.01,0.0098 0.01,0.01601 2.7e-4,0.01947 -0.004,0.03866 -0.008,0.05788 0.001,0.01252 -5.3e-4,0.02421 5.3e-4,0.03669 0.004,-0.01127 0.007,-0.01624 0.01,-0.02429 0.002,-0.0081 8e-4,0.0096 0.003,0.02429 0.0241,0.03018 0.0341,0.06442 0.0341,0.102836 0.0289,0.04444 0.0275,0.08672 0.0217,0.138493 5e-5,0.0013 5.3e-4,0.01209 5.3e-4,0.01188 10e-4,-0.0044 -0.002,-0.01651 10e-4,-0.01344 0.01,0.0094 0.0135,0.039 0.0155,0.06356 0.001,0.0011 0.003,0.0068 0.004,0.01035 0.009,0.03084 0.0107,0.03697 0.0109,0.06925 1.4e-4,2.64e-4 -1.4e-4,7.94e-4 0,0.0011 0.0191,0.04547 0.0145,0.09427 0.0114,0.142111 10e-4,0.02244 10e-4,0.0447 10e-4,0.06718 -2.6e-4,0.02408 -2e-5,0.04825 0,0.07235 0.005,0.0098 -0.0257,0.115628 -0.0155,0.07803 0.0119,0.04906 -0.007,0.09598 -0.0155,0.143661 0.008,0.05109 -7.9e-4,0.09671 -0.0233,0.14366 0.0108,-0.01013 0.007,-0.04486 0.0103,0.01344 0.002,0.03015 0.001,0.04264 0.002,0.07183 -0.005,0.03243 0.004,0.06755 -0.001,0.09974 -0.003,0.02016 -0.009,0.04002 -0.0139,0.05994 0.0332,-0.01386 -0.003,0.01651 -0.006,0.0279 0.002,0.01013 0.003,0.02934 0.004,0.03617 -0.0438,0.164796 -0.001,0.02537 -0.0289,0.09043 -0.002,0.0052 0.005,-0.01032 0.007,-0.0155 0.002,-0.0048 0.003,0.01021 0.003,0.0155 -0.005,0.02437 -0.01,0.04848 -0.0145,0.07286 -0.003,0.007 -0.008,0.01371 -0.0103,0.02119 -5.3e-4,0.0019 0.003,-0.0045 0.005,-0.0031 0.002,0.0021 8e-4,0.0063 0.001,0.0093 0.002,0.01746 8e-4,0.0048 0.003,0.02479 0.009,0.04443 -0.0108,0.08613 -0.0258,0.126609 -5.3e-4,0.0011 -1.6e-4,0.0046 5.3e-4,0.0036 0.002,-0.0026 0.004,-0.01246 0.003,-0.0093 -0.003,0.01775 -0.007,0.0356 -0.0108,0.05323 -0.0106,0.06326 -0.0389,0.119404 -0.0729,0.173114 -0.007,0.01114 -0.0137,0.0222 -0.0212,0.03307 -0.009,0.01312 -0.0201,0.02511 -0.0284,0.03876 -0.0145,0.02384 -0.0211,0.05182 -0.0331,0.077 -0.0392,0.08256 -0.016,0.02291 -0.0315,0.06356 -0.0191,0.03307 -0.0453,0.06186 -0.0651,0.09457 -0.003,0.0046 0.0121,-0.01577 0.0119,-0.01035 -8e-4,0.01823 -0.006,0.03576 -0.009,0.05374 -0.0109,0.02111 -0.0222,0.04247 -0.0331,0.06356 -0.0667,0.128825 -0.14463,-0.05916 -0.17518,-0.133843 0.002,0.0086 0.007,0.0016 -0.004,0.02479 0,-0.0033 -0.001,-0.0066 -0.002,-0.0098 -0.016,-0.06702 -0.009,-0.05045 0.006,-0.01498 -10e-4,-0.0054 -0.003,-0.0078 0.009,-0.05478 0.008,-0.03178 0.0186,-0.04013 0.0341,-0.06253 0.0245,-0.03536 0.009,-0.03476 0.0279,-0.03411 0.0585,-0.134752 -0.0288,0.06408 0.032,-0.06459 0.0327,-0.06921 0.0174,-0.05275 0.0589,-0.121957 0.005,-0.0091 0.0136,-0.01654 0.0196,-0.02532 0.008,-0.01193 0.0155,-0.02447 0.0233,-0.03669 0.0157,-0.02053 0.009,-0.0098 0.0222,-0.03876 0.003,-0.0066 0.004,-0.0149 0.009,-0.01963 0.003,-0.0027 -0.001,0.01646 -5.3e-4,0.01241 0.003,-0.01037 0.004,-0.02098 0.006,-0.03152 -0.17094,0.132813 -0.44903,0.02906 -0.5209,-0.368969 -0.003,-0.01495 -0.005,-0.02949 -0.008,-0.04444 -0.0144,-0.121603 -0.016,-0.301686 0.0486,-0.411861 0.004,-0.0061 0.0105,0.02381 0.0124,0.01704 0.005,-0.01786 -0.001,-0.03713 -0.001,-0.05581 -7.9e-4,-0.113022 0.002,-0.225984 0.003,-0.338998 -0.001,-0.05112 -0.003,-0.102454 -0.006,-0.153995 -0.0336,-0.0123 -0.0673,-0.0272 -0.1018,-0.04186 -0.1438,-0.08998 -0.28733,-0.184402 -0.41238,-0.300241 -0.0356,-0.05058 -0.08,-0.0963 -0.10697,-0.151927 -0.0233,-0.048 -0.0278,-0.10301 -0.0419,-0.154514 0.003,0.0064 0.004,0.01524 0.0104,0.01913 0.003,0.0021 0.003,-0.0077 5.3e-4,-0.01138 -0.0118,-0.02864 -0.0341,-0.05329 -0.0398,-0.08372 -0.003,-0.01347 0.0201,0.01852 0.03,0.0279 -0.0509,-0.05875 -0.10353,-0.109738 -0.1571,-0.158647 -0.096,0.02665 -0.21802,0.02676 -0.36329,-0.01704 h -5.3e-4 c -0.12984,-0.03927 -0.26005,-0.07829 -0.38964,-0.11834 -0.11871,-0.0367 -0.23623,-0.07735 -0.35553,-0.112138 -0.28996,-0.08454 -0.37014,-0.08911 -0.68265,-0.166915 -0.26126,-0.06504 -0.56102,-0.149889 -0.82268,-0.222724 -0.12514,-0.105492 -0.33942,-0.05814 -0.48525,-0.120407 -0.12827,-0.05479 -0.24441,-0.129267 -0.36018,-0.204639 -0.19748,-0.0401 -0.38969,-0.07635 -0.59635,-0.121954 -0.35182,-0.07764 -0.70112,-0.167175 -1.05161,-0.250632 -0.23208,-0.07321 -0.91194,-0.236763 -1.18856,-0.447519 -0.0236,-0.01799 -0.0445,-0.03913 -0.0651,-0.06046 -0.0817,-8e-6 -0.1633,3.2e-5 -0.24495,0 -0.46687,-1.16e-4 -0.93357,2.12e-4 -1.40043,5.29e-4 -0.70249,-7.94e-4 -1.40493,-0.0069 -2.10736,0.0026 -0.22785,0.0036 -0.45592,0.008 -0.68368,-0.0026 -0.1359,-0.0063 -0.27126,-0.02154 -0.40721,-0.02687 -0.0313,-0.0013 -0.0628,-7.94e-4 -0.0941,-0.0011 -0.2584,0.06648 -0.50493,0.169127 -0.75551,0.258381 -0.077,0.02744 -0.15678,0.04675 -0.23409,0.07338 -0.061,0.02103 -0.12055,0.04619 -0.18087,0.06925 -0.11152,0.03743 -0.22281,0.07471 -0.33434,0.112136 -1.23476,0.3961 0.42043,-0.12373 -0.58084,0.161748 -0.0398,0.01135 -0.0754,0.03347 -0.11421,0.04806 -0.17403,0.06548 -0.24423,0.06804 -0.42891,0.05116 -0.029,0.0066 -0.0573,0.01569 -0.0868,0.01963 -0.19787,0.0265 -0.46695,0.05663 -0.66559,0.04238 -0.0455,-0.0033 -0.14091,0.01926 -0.13436,-0.02585 0.007,-0.0473 0.0177,-0.09333 0.031,-0.139009 -0.1459,0.02267 -0.28425,0.07215 -0.42427,0.117822 -0.22777,0.01717 0.0961,-0.009 -0.33486,0.03979 -0.50017,0.05672 -0.4947,0.04983 -0.76223,0.0646 -0.026,0.008 -0.052,0.01585 -0.078,0.02376 -0.14962,0.10999 -0.30248,0.215771 -0.46147,0.311092 0.0123,0.0982 -0.0498,0.189881 -0.19327,0.306959 -0.0305,0.01992 -0.0641,0.03473 -0.0946,0.05478 -0.0541,0.03565 -0.14192,0.115961 -0.21704,0.12919 -0.0154,0.0027 0.0497,-0.03752 0.0367,-0.02894 -0.0241,0.01588 -0.0465,0.03408 -0.0698,0.05116 -0.11689,0.08074 -0.0426,0.02681 -0.21601,0.170016 -0.0872,0.06295 -0.195767,0.103976 -0.288355,0.155546 -0.05705,0.08949 -0.114848,0.18859 -0.191201,0.262517 -0.15186,0.147037 -0.378373,0.206843 -0.587044,0.274402 -0.0087,0.02439 -0.0199,0.0429 -0.04134,0.08113 -0.0094,0.07221 -0.03141,0.246327 -0.04341,0.284736 -0.0945,0.302377 -0.283154,0.500277 -0.622699,0.523484 -0.06427,0.0044 -0.115009,-0.05795 -0.172601,-0.08682 -0.02185,-0.02537 -0.04426,-0.05025 -0.06563,-0.07596 3.5e-5,0.007 -0.0019,0.0141 -5.29e-4,0.02066 2.65e-4,0.0016 0.0034,6.8e-5 0.0041,0.0016 0.0037,0.0072 0.0057,0.01511 0.0083,0.02273 0.0024,0.01064 0.0057,0.02122 0.0072,0.03204 0.0019,0.01304 0.0028,0.02611 0.0026,0.03928 -1.96e-4,0.01122 -0.01138,0.05005 -0.0057,0.06304 0.0013,0.0028 0.003,-0.0052 0.0047,-0.0078 0.01614,0.05628 0.03879,0.110535 0.05323,0.167431 0.01333,0.05255 -0.0016,0.0363 0.01551,0.05219 0.04105,0.04374 0.03368,0.104746 0.04961,0.157613 0.03006,0.09976 -0.0029,-0.02894 0.02946,0.105936 0.01172,0.02643 0.01471,0.0555 0.02376,0.08268 0.0011,0.0033 -0.0034,-0.0122 -5.29e-4,-0.01035 0.01873,0.01252 0.0368,0.100931 0.04186,0.122989 0.0016,0.01593 0.0021,0.03228 0.0047,0.04806 0.0011,0.0072 0.02347,0.0534 0.02946,0.06563 -0.125145,-0.173582 0.0026,0.319043 -0.143144,0.162264 -0.006,-0.0064 -0.01204,-0.01273 -0.0181,-0.01913 -0.0047,0.01201 -0.0172,0.01516 -0.05271,-0.0067 -0.08777,-0.05418 -0.05641,-0.01971 -0.101285,-0.09612 -0.0092,-0.03823 -0.01344,-0.07454 -0.02376,-0.09405 -0.008,-0.01482 -0.01834,-0.02866 -0.02429,-0.04444 -0.0064,-0.01696 -0.0082,-0.03559 -0.01241,-0.05323 2.15e-4,-0.0032 -5.29e-4,-0.0062 5.29e-4,-0.0093 2.65e-4,-7.94e-4 0.0028,7.94e-4 0.0026,0 -0.0016,-0.0066 -0.0045,-0.01278 -0.0067,-0.01913 -0.0024,-0.0154 -0.0047,-0.0306 -0.0072,-0.04599 -0.01614,-0.02856 -0.02548,-0.05263 -0.02894,-0.08733 -0.0185,-0.0285 -0.02948,-0.0474 -0.03669,-0.09664 5.29e-4,-0.0069 5.29e-4,-0.01381 0.0011,-0.02066 5.29e-4,-0.0048 0.0013,-0.01672 0.0026,-0.01447 -0.01381,-0.0468 -0.01889,-0.0666 -0.01601,-0.114721 1.43e-4,-0.02845 -0.0021,-0.05686 0,-0.08527 7.93e-4,-0.0053 0.0013,-0.01074 0.0021,-0.01601 -0.0037,-0.01551 -0.0086,-0.03072 -0.01085,-0.04651 0.0033,-0.01842 -0.0024,0.01469 0.01447,0.0181 -0.0087,-0.01916 -0.0172,-0.04068 -0.02582,-0.0677 -0.0026,7.93e-4 -0.0037,-0.0039 -0.0041,-0.01085 -5.29e-4,-0.0016 -0.0011,-0.0021 -0.0016,-0.0036 -0.0026,-0.0084 -0.0019,-0.01574 5.29e-4,-0.02222 -1.67e-4,-0.01646 -5.29e-4,-0.03911 0,-0.03927 0.01101,-0.0026 0.01736,-0.0031 0.02585,-0.0047 5.29e-4,-0.004 -2.65e-4,-0.0071 5.29e-4,-0.01138 -0.0082,1.27e-4 -0.01474,5.3e-4 -0.02739,0 -0.0052,-2.35e-4 -0.0011,-0.0093 5.29e-4,-0.01601 -0.03747,-0.01416 -0.03873,-0.0217 5.29e-4,-0.0181 1.22e-4,-0.0016 2.54e-4,-0.003 5.29e-4,-0.0047 7.94e-4,-0.0093 0.0024,-0.01188 0.0036,-0.01138 -7.94e-4,-5.29e-4 -2.17e-4,0.0059 -0.0047,-0.0098 -0.0041,-0.02249 -0.01818,-0.08953 -0.01138,-0.0677 0.0021,0.0072 0.01061,0.02815 0.0078,0.02119 -0.02114,-0.05008 -7.94e-4,0.01566 -0.02479,-0.07803 3e-6,-0.02606 1.25e-4,-0.05249 0,-0.07855 -5.3e-5,-0.0062 -0.0016,-0.0539 0,-0.05426 0.0074,-0.0016 0.01273,-0.0021 0.01913,-0.0031 v -0.0098 c -0.005,2.65e-4 -0.0095,5.3e-4 -0.0186,5.3e-4 -0.0024,0 -7.93e-4,-0.0038 0,-0.0067 5.3e-4,-0.0024 -2.9e-5,-0.0037 0,-0.0057 6e-6,-0.01106 -0.0074,-0.07097 -0.0011,-0.07286 1.72e-4,-5.3e-5 0.0024,-5.29e-4 0.0026,-5.29e-4 -7.94e-4,-0.0021 -1.59e-4,5.29e-4 -0.0011,-0.0021 -0.01016,-0.03366 -0.01463,-0.05595 -0.01394,-0.08836 -5.29e-4,-0.01045 2.65e-4,-0.01275 0,-0.01963 l -5.29e-4,-5.3e-4 c -0.01259,-0.04791 -0.01138,-0.03652 -0.01138,-0.06666 3e-6,-0.0051 -0.0011,-0.04581 0,-0.04599 0.01728,-0.0033 0.03014,-0.0042 0.04392,-0.0057 v -0.0036 c -0.01238,5.29e-4 -0.02257,0.0011 -0.04392,0.0011 -0.004,-1.5e-5 -2.65e-4,-0.0075 0,-0.01188 v -5.29e-4 c 8e-6,-0.02601 10e-5,-0.05202 0,-0.07803 -3e-6,-0.0065 -0.0064,-0.01847 0,-0.01963 0.0019,-2.65e-4 0.0028,-1.7e-4 0.0047,-5.3e-4 -0.0013,-0.0028 -0.0026,-0.0062 -0.0031,-0.0098 -7.94e-4,-1.3e-5 -7.94e-4,1.1e-5 -0.0016,0 -3.4e-5,-5e-6 -8e-6,-0.0042 0,-0.0057 -2.3e-5,0.0024 0.0013,0.0036 0.0016,0.0057 0.02,2.65e-4 0.02958,-1.21e-4 0.04237,-5.29e-4 5e-6,-0.01116 8e-6,-0.02238 0,-0.03359 -0.02434,-0.0019 -0.04227,0.0035 -0.04341,0.02687 5.9e-5,-0.0058 6.7e-5,-0.01363 5.3e-4,-0.01913 -0.0035,-0.04263 5.29e-4,-0.05508 0.0016,-0.07286 0.01381,0.0011 0.02756,0.0021 0.04134,0.0031 5e-6,-0.0021 5e-6,-0.0045 0,-0.0067 -0.01635,-0.0016 -0.03287,-0.0019 -0.04909,-0.0041 -0.0046,-7.94e-4 1.54e-4,-0.0088 5.3e-4,-0.01344 0.005,-0.0663 0.008,-0.08516 0.01601,-0.158131 0.0059,-0.05317 0.02355,-0.09115 0.04651,-0.115239 v -0.07235 c 0,-0.106995 0.05396,-0.160197 0.108003,-0.160197 0.05404,0 0.108001,0.0532 0.108006,0.160197 v 0.05994 c 0.03873,-0.04586 0.07557,-0.09 0.128156,-0.121441 0.04964,-0.135588 0.10196,-0.270666 0.165365,-0.399973 0.109222,-0.176096 0.247949,-0.342998 0.432014,-0.444934 -0.01072,0.04709 -0.0019,1.48e-4 0.100769,-0.0615 0.0067,-0.004 0.01439,-0.0074 0.02119,-0.01138 0.04019,-0.05329 0.08025,-0.106815 0.123508,-0.157615 0.133077,-0.156258 0.230264,-0.24615 0.374652,-0.388089 0.130043,-0.102465 0.236112,-0.260209 0.395325,-0.325045 0.201094,-0.0819 0.459164,-0.06796 0.668174,-0.07596 0.52452,-0.0062 0.16637,0.0034 0.61288,-0.02997 0.0211,-0.01606 0.033,-0.02519 0.0703,-0.05374 0.25345,-0.161396 0.46434,-0.40636 0.74156,-0.533299 0.0808,-0.03698 0.16678,-0.06115 0.25063,-0.09043 0.26217,-0.09161 0.52567,-0.179258 0.78858,-0.268716 0.12566,-0.04247 0.14053,-0.04707 0.19586,-0.06615 z m 0.278538,3.444234 c 0.0061,0.01204 0.02085,0.01593 0.03927,0.01654 5e-6,-0.0072 -3e-6,-0.01447 0,-0.0217 -0.01262,0.0016 -0.02336,0.0024 -0.03927,0.0052 z m 0.07545,0.757577 c 5.29e-4,-0.0013 0.0011,0.0083 0.0036,0.0072 0.0024,-0.0011 -5.29e-4,-0.0046 -0.0011,-0.0072 -7.94e-4,1.3e-5 -0.0019,-1.6e-5 -0.0026,0 z m 0.306959,-1.253154 c -0.0055,0.0069 -0.0123,0.0186 -0.02066,0.03927 -0.0011,0.0027 0.0053,-0.003 0.0078,-0.0047 0.0042,-0.01159 0.0087,-0.02305 0.01291,-0.03462 z m -0.343133,0.674378 c -0.01746,0.004 -0.03042,0.01122 -0.03204,0.02687 0.0028,-0.0085 0.01381,-0.0089 0.03204,-0.0088 z m -0.03256,0.02945 c -5.8e-5,0.0021 -0.0013,0.0037 -0.0011,0.0062 5.29e-4,0 5.29e-4,3e-6 0.0011,0 1.43e-4,-0.0013 -2.56e-4,-0.0051 0,-0.0062 z m 0.02429,0.129193 c -0.0092,0.0011 0.0021,-2.48e-4 -0.0078,0.0011 1.11e-4,5.29e-4 7.94e-4,0.0027 0.0011,0.0036 0.0013,-2.61e-4 0.0091,-0.0013 0.01498,-0.0021 v -0.0016 c -0.0033,-2.64e-4 -0.0067,-0.0011 -0.0083,-0.0011 z m 0.0987,0.966865 c 0.0011,0.0021 2.33e-4,0.0024 0.0021,0.0057 7.93e-4,0.0013 0.0038,0.0038 0.0031,0.0026 -0.0024,-0.0035 -0.0031,-0.0051 -0.0052,-0.0083 z m 0.410311,0.303342 c 0.0034,0.0045 0.0071,0.009 0.0098,0.01394 0.0016,0.003 -0.0056,-0.0047 -0.0072,-0.0078 -1.16e-4,-2.28e-4 -0.0021,-0.0052 -0.0026,-0.0062 z"
         id="path5944"
         inkscape:connector-curvature="0" />
    </clipPath>
    <clipPath
       clipPathUnits="userSpaceOnUse"
       id="clipPath5952">
      <path
         style="fill:#ff0000;fill-opacity:1;fill-rule:nonzero;stroke:none;stroke-width:0.26458332"
         d="m 119.37979,22.170223 v 16.537493 c 0.009,0.03799 0.009,0.07722 0.006,0.116271 0.001,0.02244 0.001,0.0447 0.001,0.06718 -2.6e-4,0.02408 -2e-5,0.04825 0,0.07235 0.002,0.0046 -0.002,0.01421 -0.007,0.03617 v 0.341063 h 0.37052 V 22.170223 Z"
         id="path5954"
         inkscape:connector-curvature="0" />
    </clipPath>
    <clipPath
       clipPathUnits="userSpaceOnUse"
       id="clipPath5975">
      <path
         style="fill:#ff0000;fill-opacity:1;fill-rule:nonzero;stroke:none;stroke-width:0.26458332"
         d="M 97.551153,17.701762 V 44.372485 H 119.71052 V 17.701762 Z M 112.4722,32.345828 c 0.2573,0.01122 0.39269,0.102209 0.71159,0.236678 0.83019,0.56452 1.55316,1.254453 2.32854,1.889808 0.13254,0.199908 0.29332,0.38386 0.39739,0.599964 0.14284,0.296629 0.23098,0.592367 0.293,0.891418 0.19793,0.078 0.38407,0.157694 0.54261,0.236678 0.16741,0.0834 0.31973,0.193609 0.48007,0.289906 0.53909,0.49022 0.62342,0.42376 -0.11524,1.635041 -0.0907,0.148748 -0.3439,0.06377 -0.5178,0.07441 -0.0513,0.0031 -0.10259,-1.88e-4 -0.15399,-0.0026 -0.004,0.08379 -0.008,0.167378 -0.0104,0.251148 -0.21199,0.495765 -0.20237,0.618423 -0.67127,0.997354 -0.56228,0.454388 -1.80126,0.799947 -2.48099,0.936377 -0.26916,0.05402 -0.54614,0.05933 -0.81907,0.08888 -0.65457,7.94e-4 -1.31669,0.101923 -1.96216,-0.03152 -0.0963,-0.02614 -0.201,-0.03082 -0.28887,-0.07803 -0.0249,-0.01339 0.10522,-0.03432 0.077,-0.03566 -0.1104,-0.0053 -0.22024,0.02029 -0.33073,0.02326 -0.64443,0.01733 -1.25144,-0.147634 -1.8464,-0.390673 -0.9512,-0.471437 -1.44368,-0.605345 -2.17299,-1.480013 -0.24123,-0.289316 -0.43585,-0.86551 -0.45941,-1.337386 -0.0402,-0.0092 -0.0782,-0.02127 -0.11472,-0.03566 -0.40245,0.202184 -0.24592,0.147108 -0.95859,0.198437 -0.96966,0.06984 -0.18944,-0.559038 0.3762,-1.076936 -0.0665,-0.249177 -0.0406,-0.451345 0.047,-0.624769 -0.0156,0.0021 -0.0236,0.0011 -0.0403,0.0036 -0.62754,0.09688 -0.64312,0.145079 -0.11834,-0.09405 0.15764,-0.09276 0.31369,-0.188415 0.47077,-0.282155 0.23003,-0.198162 0.52473,-0.374036 0.80254,-0.57981 0.53424,-0.364712 0.89946,-0.637421 1.47691,-0.935858 0.44322,-0.229071 0.67687,-0.278193 1.1405,-0.420648 1.0724,-0.329506 0.5513,-0.19151 1.48105,-0.411345 0.35293,-0.09835 1.19502,-0.338706 1.49758,-0.393255 0.0653,-0.01177 0.13231,0.03991 0.1974,0.02687 0.14969,-0.02998 0.28052,-0.134173 0.43202,-0.152964 0.12423,-0.0154 0.22325,-0.02027 0.30902,-0.01654 z m -5.5671,4.964039 c -0.0114,0.0051 -0.0245,0.0065 -0.0346,0.01394 -0.036,0.02667 0.0121,0.01368 0.077,-0.0098 -0.0144,-0.0013 -0.0281,-0.0028 -0.0424,-0.0041 z m 0.20205,0.0186 c 8e-4,0.02556 0.008,0.01524 0.0165,0.0011 -0.006,-5.29e-4 -0.0106,-5.29e-4 -0.0165,-0.0011 z"
         id="path5977"
         inkscape:connector-curvature="0" />
    </clipPath>
  </defs>
  <sodipodi:namedview
     id="base"
     pagecolor="#ffffff"
     bordercolor="#666666"
     borderopacity="1.0"
     inkscape:pageopacity="0.0"
     inkscape:pageshadow="2"
     inkscape:zoom="1.52"
     inkscape:cx="400"
     inkscape:cy="871.38845"
     inkscape:document-units="mm"
     inkscape:current-layer="layer1"
     inkscape:document-rotation="0"
     showgrid="false"
     inkscape:window-width="1600"
     inkscape:window-height="852"
     inkscape:window-x="0"
     inkscape:window-y="0"
     inkscape:window-maximized="1" />
  <metadata
     id="metadata5">
    <rdf:RDF>
      <cc:Work
         rdf:about="">
        <dc:format>image/svg+xml</dc:format>
        <dc:type
           rdf:resource="http://purl.org/dc/dcmitype/StillImage" />
        <dc:title></dc:title>
      </cc:Work>
    </rdf:RDF>
  </metadata>
  <g
     inkscape:label="Layer 1"
     inkscape:groupmode="layer"
     id="layer1">
    <path
       style="fill:#000000;fill-opacity:1;fill-rule:nonzero;stroke:none;stroke-width:0.26458332"
       id="path12"
       d="m 66.322225,28.537609 c 0.524399,-1.50776 0.477943,-2.535182 -0.206394,-3.960995 -0.804071,-1.359246 -2.346036,-1.767322 -3.733609,-2.294473 -1.229122,-0.471196 -2.514534,-0.72617 -3.821046,-0.842584 -0.385705,-0.02156 -0.523714,-0.05621 -0.898951,0.02353 -0.135157,0.02872 -0.52528,0.171691 -0.395216,0.12505 6.757717,-2.423291 4.435795,-1.798558 3.077657,-0.945744 -2.653483,2.093598 0.333528,0.856603 -5.873073,2.232852 -0.587182,-1.21041 -1.136631,-2.438127 -1.739297,-3.641474 -0.552354,-1.091742 -1.265105,-2.084088 -2.279115,-2.781739 -0.590741,-0.354119 -1.256512,-0.41533 -1.927992,-0.430289 -0.697924,-0.06881 -1.317604,0.0837 -1.968164,0.314278 7.246342,-2.953701 2.921447,-1.066959 1.361567,0.06636 -1.054664,0.697191 -1.965243,1.567301 -2.914873,2.393176 -1.816589,1.23101 -4.282519,2.882183 -6.305502,1.637967 -0.534355,-0.390961 -1.145699,-0.493097 -1.788305,-0.54714 -1.005906,-0.106011 -1.993578,0.04253 -2.946294,0.363489 6.758434,-2.411624 4.014123,-1.63965 2.687997,-0.775443 -0.458888,0.299047 -0.871453,0.652476 -1.284449,1.010096 -0.639191,0.577142 -1.118283,1.261047 -1.136557,2.138017 0.08872,0.865653 0.897736,1.077725 1.435047,1.613703 0.836996,2.266962 -3.802785,1.896019 -5.525167,2.562748 -1.49874,0.487024 -4.016418,1.361771 2.768042,-1.032721 0.180774,-0.0638 -0.357767,0.138242 -0.533138,0.215669 -0.523788,0.231256 -0.594501,0.287681 -1.096513,0.571169 -1.154787,0.690296 -2.134166,1.594869 -2.947993,2.659671 -0.720431,1.153084 -1.034177,2.426722 -0.711316,3.751517 0.332136,0.897152 1.140536,1.250751 1.957366,1.608899 0.924362,0.404831 1.862503,0.684763 2.862262,0.818126 1.091719,0.120153 2.181173,0.18573 3.21667,-0.22003 -6.687185,2.481646 -3.820499,1.519693 -2.459795,0.657074 0.500894,-0.317539 0.972836,-0.674653 1.476198,-0.98897 1.698062,-0.824944 1.829181,-0.912201 5.00298,-1.639935 0.105114,-0.0241 1.92301,1.241452 2.083147,1.357268 1.124225,0.807918 2.327322,1.447353 3.657057,1.830776 1.015608,0.224184 2.076228,0.352174 3.111847,0.220297 0.480425,-0.06188 0.952989,-0.192151 1.416454,-0.330996 0.173009,-0.05183 0.684052,-0.232177 0.514245,-0.170659 -4.012206,1.453518 -4.81628,1.837767 -3.151542,1.078074 0.946991,-0.423249 1.630973,-1.174102 2.350706,-1.888299 1.618988,-1.287915 3.89413,-2.593534 5.873692,-1.728055 0.583983,0.326115 1.171297,0.642448 1.784437,0.911797 0.668631,0.260387 1.3984,0.256391 2.105694,0.279114 0.865921,0.01683 1.732108,0.01228 2.59814,0.0097 0.144664,-5.29e-4 0.289324,-0.0011 0.433988,-0.0013 0.354645,-0.0011 0.46922,0.02101 0.812628,-0.06669 0.128061,-0.03271 0.498843,-0.175106 0.374343,-0.130738 -3.977907,1.417627 -5.044604,1.952767 -3.461634,1.183407 0.55353,-0.07533 1.029068,-1.095129 1.446504,-1.26396 1.480743,-0.598876 2.990035,-1.124587 4.485053,-1.686883 0.997942,0.174734 1.918287,0.640469 2.879666,0.952233 1.032375,0.327464 2.116278,0.363956 3.189404,0.398 0.192305,0.0033 0.384731,0.01757 0.576916,0.01003 0.396431,-0.01556 0.80694,-0.07928 1.189956,-0.181107 0.201454,-0.05356 0.790342,-0.265414 0.594489,-0.194035 -4.097221,1.493234 -4.658248,1.75469 -2.957279,1.011399 1.050835,-0.480441 1.557779,-1.324231 1.674955,-2.439183 -0.02503,-1.027917 -0.851072,-1.707637 -1.567632,-2.335707 C 70.871661,29.400994 69.937568,28.9557 69.004343,28.53356 68.374992,28.284341 67.7591,28.013006 67.115562,27.801384 c 0,0 4.088553,-1.912763 4.088553,-1.912763 v 0 c 0.641335,0.237663 1.26927,0.506961 1.899336,0.772906 0.963128,0.443807 1.918554,0.931114 2.736344,1.615488 0.818473,0.739865 1.659983,1.553226 1.721073,2.723735 -0.07564,1.201861 -0.466477,2.281499 -1.574007,2.901039 -2.423123,1.215975 -5.073451,2.38746 -7.82666,2.278465 -1.099916,-0.05214 -2.203416,-0.134927 -3.248801,-0.511752 -0.874871,-0.304683 -1.822323,-0.854839 -2.764414,-0.671496 1.300721,-0.492443 2.601442,-0.984883 3.902162,-1.477323 -0.0937,0.04164 -0.198339,0.06438 -0.281088,0.124926 -0.442431,0.323731 -0.636397,0.939943 -1.168164,1.17266 -1.972858,1.279808 -4.273209,2.078551 -6.604204,2.002451 -0.87014,0.0011 -1.740754,0.0088 -2.610374,-0.02729 -0.748564,-0.04301 -1.506651,-0.09255 -2.190136,-0.432864 -0.592066,-0.285655 -1.163391,-0.615492 -1.769755,-0.86745 -0.176271,-0.04154 -0.309288,-0.08535 -0.493308,-0.07874 -0.08141,0.0029 -0.317225,0.06845 -0.241247,0.03906 7.179207,-2.776908 4.72468,-1.929339 3.363142,-1.192829 -0.784214,0.668425 -1.378603,1.556163 -2.336072,2.016332 -2.214515,1.18514 -4.695383,2.061144 -7.195179,2.410814 -1.070491,0.02877 -2.146491,-0.07061 -3.175945,-0.379465 -1.337008,-0.45252 -2.556195,-1.137182 -3.701799,-1.961687 -0.506722,-0.342554 -1.037235,-0.74549 -1.605137,-0.987102 -0.127341,-0.05418 -0.524888,-0.0568 -0.399076,-0.114443 1.904971,-0.872712 5.382569,-1.942579 3.441914,-1.340266 -0.540205,0.282075 -0.993994,0.629706 -1.493784,0.975871 -1.782533,1.234615 -3.748035,1.768224 -5.885289,2.456516 -1.095237,0.252354 -2.202645,0.200663 -3.311625,0.03907 -1.015093,-0.180888 -1.977939,-0.505812 -2.919511,-0.926791 -0.930365,-0.438136 -1.746885,-0.965726 -2.09847,-1.989902 -0.360405,-1.440214 -0.103164,-2.821458 0.609568,-4.126418 0.766276,-1.138422 1.747959,-2.083771 2.897568,-2.837725 2.206085,-1.385334 4.755824,-2.045558 7.214023,-2.870554 0.941631,-0.255585 0.0042,-0.0164 0.884468,-0.199457 0.111127,-0.02311 0.435181,-0.126127 0.33034,-0.08263 -1.284933,0.533089 -5.096155,1.154799 -3.813942,1.694391 0.01738,0.0073 -0.0099,-0.03636 -0.0149,-0.05454 -0.654447,-0.587384 -1.435907,-0.967798 -1.541293,-1.951497 -0.06494,-0.99263 0.337211,-1.81783 1.039722,-2.519224 2.065221,-1.885433 3.939741,-2.652923 6.937237,-3.418884 0.999609,-0.249409 2.01943,-0.354872 3.046257,-0.209754 0.674902,0.104846 1.291852,0.310993 1.865233,0.692315 0.218734,0.09235 0.303072,0.150461 0.544634,0.163628 0.09963,0.0054 0.391335,-0.05688 0.298667,-0.0199 -7.020137,2.801506 -4.463587,1.79453 -3.055723,1.089942 0.982694,-0.792147 1.836319,-1.734567 2.910051,-2.416167 2.111076,-1.643463 4.29795,-2.469339 6.990691,-3.227876 0.677474,-0.187465 1.35663,-0.241678 2.058557,-0.17613 0.725897,0.06817 1.420728,0.238403 2.021554,0.675947 1.008922,0.801141 1.759474,1.834976 2.334567,2.985656 0.594397,1.176304 1.112716,2.390108 1.74054,3.54872 -1.362075,0.538731 -2.72415,1.077461 -4.086225,1.616192 0.251746,-0.07566 0.216868,-0.03658 0.438902,-0.262286 0.304371,-0.309407 0.537397,-0.691226 0.909679,-0.932953 1.866977,-1.434724 4.305938,-2.410896 6.666164,-2.183752 1.316337,0.164569 2.605029,0.472652 3.841642,0.96108 1.494115,0.571933 3.059789,1.115107 3.874045,2.605779 0.713896,1.510216 0.84116,2.649339 0.342167,4.267794 0,0 -4.336024,1.267478 -4.336024,1.267478 z"
       inkscape:connector-curvature="0" />
    <text
       xml:space="preserve"
       style="font-style:normal;font-variant:normal;font-weight:normal;font-stretch:normal;font-size:5.64444447px;font-family:'Abyssinica SIL';-inkscape-font-specification:'Abyssinica SIL';fill:#000000;fill-opacity:1;stroke:none;stroke-width:0.26458332"
       x="39.182014"
       y="29.422401"
       id="text16"><tspan
         sodipodi:role="line"
         id="tspan14"
         x="39.182014"
         y="29.422401"
         style="font-style:normal;font-variant:normal;font-weight:normal;font-stretch:normal;font-size:5.64444447px;font-family:'Abyssinica SIL';-inkscape-font-specification:'Abyssinica SIL';stroke-width:0.26458332">Internet</tspan></text>
    <rect
       style="fill:#b3b3b3;stroke-width:0.2847048"
       id="rect36"
       width="146.81416"
       height="18.23843"
       x="24.714836"
       y="77.735909" />
    <rect
       style="fill:#b3b3b3;fill-opacity:1;fill-rule:nonzero;stroke:#000000;stroke-width:0;stroke-linejoin:round;stroke-miterlimit:4;stroke-dasharray:none;stroke-opacity:1"
       id="rect6022"
       width="60.167984"
       height="18.047806"
       x="24.856163"
       y="77.838737" />
    <g
       style=""
       id="g34"
       transform="translate(0.07331821,7.7379774)">
      <rect
         style="fill:#92d45c;stroke-width:0;stroke-miterlimit:4;stroke-dasharray:none;stroke:#000000;stroke-opacity:1;stroke-linejoin:round;fill-opacity:1"
         y="72.295265"
         x="29.337313"
         height="13.664087"
         width="26.719143"
         id="rect18" />
      <text
         id="text22"
         y="77.778053"
         x="42.278381"
         style="font-style:normal;font-weight:normal;font-size:3.88055563px;font-family:sans-serif;text-align:center;text-anchor:middle;fill:#000000;fill-opacity:1;stroke:none;stroke-width:0.26458332"
         xml:space="preserve"><tspan
           style="font-size:3.52777778px;text-align:center;text-anchor:middle;stroke-width:0.26458332"
           y="77.778053"
           x="42.278381"
           id="tspan20"
           sodipodi:role="line">GPU Nvidia</tspan><tspan
           id="tspan24"
           style="font-size:2.82222223px;text-align:center;text-anchor:middle;stroke-width:0.26458332"
           y="82.628746"
           x="42.278381"
           sodipodi:role="line">Quadro M4000</tspan></text>
    </g>
    <g
       style=""
       id="g5990"
       transform="matrix(0.87112054,0,0,0.58523629,-22.747221,68.937854)">
      <g
         clip-path="url(#clipPath5975)"
         id="g5959">
        <ellipse
           style="fill:none;fill-opacity:1;fill-rule:nonzero;stroke:#000000;stroke-width:0.40000001;stroke-miterlimit:4;stroke-dasharray:none;stroke-opacity:1"
           id="path43"
           cx="108.65133"
           cy="22.306028"
           rx="10.859273"
           ry="4.4040327" />
        <ellipse
           ry="4.4040327"
           rx="10.859273"
           cy="39.768543"
           cx="108.65133"
           id="ellipse5745"
           style="fill:none;fill-opacity:1;fill-rule:nonzero;stroke:#000000;stroke-width:0.40000001;stroke-miterlimit:4;stroke-dasharray:none;stroke-opacity:1"
           clip-path="url(#clipPath5942)" />
        <path
           style="fill:none;stroke:#000000;stroke-width:0.26458332px;stroke-linecap:butt;stroke-linejoin:miter;stroke-opacity:1"
           d="m 97.68321,22.46656 0.03928,17.127746"
           id="path5747"
           inkscape:connector-curvature="0" />
      </g>
      <path
         clip-path="url(#clipPath5952)"
         inkscape:connector-curvature="0"
         id="path5749"
         d="m 119.6178,22.170879 -0.10585,17.169"
         style="fill:none;stroke:#000000;stroke-width:0.26458332px;stroke-linecap:butt;stroke-linejoin:miter;stroke-opacity:1" />
      <path
         transform="scale(0.26458333)"
         inkscape:connector-curvature="0"
         id="path5979"
         d="m 400.65789,165.36071 c -14.78008,-1.63669 -26.86643,-6.91296 -29.32737,-12.80282 -0.634,-1.51739 -0.868,-6.8671 -0.89343,-20.42546 -0.0189,-10.10329 -0.23024,-23.99461 -0.46954,-30.86961 l -0.43509,-12.500002 1.72884,2.047162 c 2.50452,2.965652 10.03743,6.672236 17.30858,8.516713 15.04751,3.817117 33.51585,3.489887 47.28538,-0.837806 6.6853,-2.101155 9.58031,-3.581651 12.96365,-6.629564 l 2.70699,-2.438611 -0.40959,31.173668 c -0.40546,30.85926 -0.42442,31.1953 -1.87986,33.31937 -2.99732,4.3743 -11.65288,8.45517 -22.16178,10.44867 -6.89479,1.30792 -19.36503,1.77917 -26.41678,0.99829 z"
         style="fill:#ffb380;fill-opacity:1;fill-rule:nonzero;stroke:#000000;stroke-width:0.99461251;stroke-miterlimit:4;stroke-dasharray:none;stroke-opacity:1" />
      <path
         transform="scale(0.26458333)"
         inkscape:connector-curvature="0"
         id="path5981"
         d="m 395.16794,98.567554 c -13.39789,-2.420633 -23.36779,-7.821873 -24.18054,-13.099921 -0.95376,-6.193752 8.19689,-12.30804 22.7788,-15.220357 8.65171,-1.727931 26.06214,-1.608728 34.52327,0.236368 11.40506,2.487069 18.82918,6.248708 21.31981,10.802263 3.83963,7.019927 -6.59615,14.498306 -24.22086,17.35689 -7.48974,1.214775 -23.29824,1.175415 -30.22048,-0.07524 z"
         style="fill:#ffb380;fill-opacity:1;fill-rule:nonzero;stroke:#000000;stroke-width:0.99461251;stroke-miterlimit:4;stroke-dasharray:none;stroke-opacity:1" />
    </g>
    <text
       xml:space="preserve"
       style="font-style:normal;font-weight:normal;font-size:2.82222223px;font-family:sans-serif;text-align:center;text-anchor:middle;fill:#000000;fill-opacity:1;stroke:none;stroke-width:0.26458332"
       x="72.167679"
       y="88.037949"
       id="text5994"><tspan
         sodipodi:role="line"
         id="tspan5992"
         x="72.167679"
         y="88.037949"
         style="font-size:2.82222223px;text-align:center;text-anchor:middle;stroke-width:0.26458332">320Gb</tspan><tspan
         sodipodi:role="line"
         x="72.167679"
         y="91.565727"
         style="font-size:2.82222223px;text-align:center;text-anchor:middle;stroke-width:0.26458332"
         id="tspan5996">Solid State</tspan></text>
  </g>
</svg>
